<svg
    xmlns="http://www.w3.org/2000/svg"
    viewBox="0 0 96 96"
    x="0px"
    y="0px"
    stroke="currentColor"
  >
    <path d="M84.4063,1.5H22.0938A4.8493,4.8493,0,0,0,17.25,6.3438v8.3125a4.8332,4.8332,0,0,0,4.333,4.7921V52.5032a5.0209,5.0209,0,0,0-3.6738,3.2243l-2.3906,6.7832A2.9955,2.9955,0,0,0,15.625,68.5h.8543l1.1088,10.0254-1.24,1.031A2.9977,2.9977,0,0,0,13.875,78.25H9.75a3,3,0,0,0,0,6h4.125a2.9989,2.9989,0,0,0,2.9482-2.4874l1.0283-.8548,1.0206,9.2279A4.8974,4.8974,0,0,0,23.7451,94.5H83.917a1,1,0,0,0,1-1V19.4484a4.8332,4.8332,0,0,0,4.333-4.7921V6.3438A4.8492,4.8492,0,0,0,84.4063,1.5ZM13.875,82.25H9.75a1,1,0,0,1,0-2h4.125a1,1,0,0,1,0,2ZM82.917,19.5v69H45.8088l1.5417-13.94A24.4526,24.4526,0,0,0,77.7267,53.8335H79.292a2.2528,2.2528,0,0,0,2.25-2.25v-1.5a2.2528,2.2528,0,0,0-2.25-2.25H77.7267a24.4969,24.4969,0,0,0-48.81,3c0,.5439.02,1.0892.0557,1.6326a4.271,4.271,0,0,0-.84-.0911h-4.55V19.5ZM31.0917,53.58a22.9356,22.9356,0,0,1-.1747-2.7468A22.5421,22.5421,0,1,1,47.5726,72.5514l.2232-2.0183A20.4932,20.4932,0,1,0,33.347,55H32.1328l-.416-.6553A4.2749,4.2749,0,0,0,31.0917,53.58ZM35.4,55A18.5608,18.5608,0,1,1,48.0191,68.5142l.0016-.0142h.8543a3,3,0,0,0,0-6H47.351l-1.0053-3.7725A5.028,5.028,0,0,0,41.4932,55Zm11.7741,9.5H48.875a1,1,0,0,1,0,2H46.0742ZM77.917,49.8335h1.375a.25.25,0,0,1,.25.25v1.5a.25.25,0,0,1-.25.25H77.917ZM19.7959,56.3926a3.0266,3.0266,0,0,1,2.85-2.0176h5.4873a2.2353,2.2353,0,0,1,1.8955,1.0415l.71,1.1191A1,1,0,0,0,31.583,57h9.91a3.027,3.027,0,0,1,2.9209,2.2427l1.1,4.1269-4.1045,7.4639H37.75a1,1,0,0,0-.9453.6733l-1.3506,3.91h-3.53L29.43,60.5117a3.3064,3.3064,0,0,0-3.2627-2.8452,1,1,0,0,0,0,2,1.2993,1.2993,0,0,1,1.2822,1.1182L27.6859,62.5H17.6436ZM14.625,65.5a1.0009,1.0009,0,0,1,1-1H27.9922l.3484,2H15.625A1.0009,1.0009,0,0,1,14.625,65.5Zm3.8662,3H28.6889l.1215.6974-9.38,7.7963Zm5.2539,24A2.9,2.9,0,0,1,20.86,89.916l-1.166-10.54L29.2062,71.47l.8915,5.1181a1,1,0,0,0,.9853.8286h5.084a1,1,0,0,0,.9453-.6733l1.3506-3.91H42a1,1,0,0,0,.876-.5181L44.9742,68.5h1.0346L43.64,89.916A2.9,2.9,0,0,1,40.7549,92.5Zm59.1719,0H44.6957a4.8723,4.8723,0,0,0,.8572-2H82.917ZM87.25,14.6563A2.8469,2.8469,0,0,1,84.4063,17.5H22.0938A2.8469,2.8469,0,0,1,19.25,14.6563V6.3438A2.8469,2.8469,0,0,1,22.0938,3.5H84.4063A2.8469,2.8469,0,0,1,87.25,6.3438ZM31.583,5.5a5,5,0,1,0,5,5A5.0059,5.0059,0,0,0,31.583,5.5Zm0,8a3,3,0,1,1,3-3A3.0033,3.0033,0,0,1,31.583,13.5Zm43.667-8a5,5,0,1,0,5,5A5.0059,5.0059,0,0,0,75.25,5.5Zm0,8a3,3,0,1,1,3-3A3.0033,3.0033,0,0,1,75.25,13.5Zm-30.667-6a3,3,0,1,0,3,3A3.0033,3.0033,0,0,0,44.583,7.5Zm0,4a1,1,0,1,1,1-1A1.001,1.001,0,0,1,44.583,11.5Zm17.667-4a3,3,0,1,0,3,3A3.0033,3.0033,0,0,0,62.25,7.5Zm0,4a1,1,0,1,1,1-1A1.0009,1.0009,0,0,1,62.25,11.5Zm-8.833-4a3,3,0,1,0,3,3A3.0033,3.0033,0,0,0,53.417,7.5Zm0,4a1,1,0,1,1,1-1A1.0009,1.0009,0,0,1,53.417,11.5ZM67.5439,50.9766a1,1,0,1,1,1.2286-1.5782,10.2648,10.2648,0,0,1,.8457.7222,1,1,0,0,1-1.4014,1.4268C68.1943,51.5259,67.9561,51.2974,67.5439,50.9766ZM62.06,47.561a1,1,0,0,1,1.1767-.7841,11.8784,11.8784,0,0,1,1.9922.5893A1,1,0,1,1,64.5,49.2285a9.9092,9.9092,0,0,0-1.6562-.4907A1,1,0,0,1,62.06,47.561Zm-15.3223,6.58a.9989.9989,0,0,1,.8906-1.0981,8.7748,8.7748,0,0,0,1.6729-.34,1,1,0,1,1,.59,1.9112,10.774,10.774,0,0,1-2.0556.4184c-.0352.0034-.07.0054-.1045.0054A.9992.9992,0,0,1,46.7373,54.1411ZM41.7686,54.13a1,1,0,1,1,.7168-1.8672,13.3377,13.3377,0,0,0,1.6923.5264,1,1,0,0,1-.23,1.9731,1.0374,1.0374,0,0,1-.2325-.0268A15.4615,15.4615,0,0,1,41.7686,54.13Zm10.3877-1.6294a1,1,0,0,1,.17-1.4038,12.35,12.35,0,0,0,1.0918-.9707l.248-.2422A1,1,0,0,1,55.0469,51.33l-.2149.21A14.2514,14.2514,0,0,1,53.5605,52.67a1,1,0,0,1-1.4042-.1694ZM56.5547,48.85a1,1,0,0,1,.4805-1.33,10.0472,10.0472,0,0,1,1.9941-.6948,1,1,0,0,1,.4531,1.9482,8.0744,8.0744,0,0,0-1.5976.5572,1,1,0,0,1-1.33-.48ZM39.28,50.5908a1,1,0,1,1-1.1172,1.6582c-.5664-.3813-.8828-.6445-.8828-.6445a1,1,0,0,1,1.2724-1.543C38.5713,50.0767,38.8311,50.2876,39.28,50.5908Z"></path>
  </svg>